<svg xmlns="http://www.w3.org/2000/svg" version="1.1" viewBox="0 0 100 100" fill="currentColor">
  <path d="M88.4,34.2v-2h-15.2V8.1H28.4v24.9h-15.2v2h15.2v8.1h-15.2v2h15.2v9.2h-15.2v2h15.2v9.1h-15.2v2h15.2v23.2h44.8v-24h15.2v-2h-15.2v-9.2h15.2v-2h-15.2v-9.2h15.2v-2h-15.2v-8h15.2ZM70.2,87.6H31.4V11.1h38.8v76.5Z"/>
  <polygon points="42.91 48.74 45.48 48.74 45.48 43.97 50.26 43.97 50.26 41.4 45.48 41.4 45.48 36.62 42.91 36.62 42.91 41.4 38.14 41.4 38.14 43.97 42.91 43.97 42.91 48.74"/>
  <path d="M58.01,46.27c-.5,0-.92-.09-1.29-.26-.36-.18-.66-.41-.9-.71-.24-.3-.43-.65-.55-1.06-.13-.41-.2-.84-.22-1.28h-3.24c-.02.98.12,1.84.42,2.59.3.75.72,1.39,1.26,1.91.54.52,1.2.92,1.98,1.19.78.27,1.64.41,2.58.41.82,0,1.6-.12,2.35-.36.75-.24,1.42-.59,1.99-1.06.58-.46,1.04-1.04,1.38-1.73.34-.69.52-1.47.52-2.35,0-.96-.26-1.78-.79-2.47-.53-.69-1.26-1.14-2.19-1.34v-.05c.79-.22,1.37-.65,1.77-1.27.39-.62.59-1.34.59-2.16,0-.75-.17-1.42-.5-1.99-.34-.58-.77-1.06-1.31-1.46-.54-.4-1.14-.7-1.81-.9-.67-.2-1.34-.3-2.02-.3-.86,0-1.65.14-2.35.42-.71.28-1.31.68-1.81,1.19s-.9,1.12-1.18,1.84c-.28.71-.44,1.5-.47,2.36h3.24c-.02-.86.2-1.58.64-2.15.44-.57,1.09-.85,1.96-.85.62,0,1.18.19,1.66.58.48.38.72.94.72,1.66,0,.48-.12.86-.35,1.15-.23.29-.53.51-.89.66-.36.15-.75.24-1.16.28s-.81.03-1.18,0v2.4c.42,0,.85.01,1.31.04.46.02.88.11,1.26.26.38.15.7.4.95.73s.37.82.37,1.46c0,.82-.27,1.46-.79,1.93-.53.47-1.18.71-1.94.71Z"/>
  <path d="M35.72,65.17c.19.53.42,1.06.69,1.58.27.52.57,1.04.91,1.56h.91c-.66-1.07-1.14-2.14-1.42-3.19-.29-1.05-.43-2.17-.43-3.35s.14-2.24.42-3.29c.28-1.05.76-2.1,1.43-3.16h-.91c-.73.96-1.28,2-1.65,3.12-.37,1.12-.55,2.23-.55,3.33,0,.62.05,1.2.15,1.76.1.56.25,1.11.44,1.64Z"/>
  <path d="M43.35,55.55l-6.01,10h1.47l1.75-3.01h4.21l.46,3.01h1.37l-1.81-10h-1.46ZM41.16,61.42l2.67-4.69h.03l.74,4.69h-3.44Z"/>
  <rect x="48.11" y="64.92" width="7.06" height=".95"/>
  <polygon points="48.11 59.2 53.79 61.29 48.11 63.33 48.11 64.38 55.16 61.76 55.16 60.8 48.11 58.17 48.11 59.2"/>
  <path d="M62.02,59.85c-.29-.28-.63-.5-1.02-.64s-.81-.21-1.25-.21c-.34,0-.67.06-1.01.17-.34.12-.62.3-.83.54l-.03-.03.53-2.86h4v-1.05h-4.9l-.92,5.15,1.02.06c.23-.28.5-.51.8-.68.3-.17.65-.26,1.04-.26.34,0,.64.06.92.17.28.11.51.27.71.47.2.2.35.44.46.71s.16.58.16.9c0,.39-.06.74-.17,1.03-.11.29-.26.54-.46.74-.19.2-.42.34-.67.44-.26.1-.53.15-.81.15-.3,0-.57-.04-.82-.13-.25-.09-.46-.21-.64-.38-.18-.16-.33-.36-.43-.57-.11-.22-.17-.46-.19-.71h-1.19c0,.45.1.85.27,1.2s.4.65.69.89c.29.24.62.42,1,.55s.78.19,1.21.19c.58,0,1.08-.09,1.52-.27.43-.18.8-.43,1.08-.73.29-.31.51-.66.65-1.06s.22-.8.22-1.22c0-.57-.08-1.07-.25-1.49s-.4-.78-.69-1.06Z"/>
  <path d="M64.9,58.51c.28,1.06.43,2.18.43,3.35s-.14,2.23-.42,3.28c-.28,1.05-.75,2.1-1.41,3.16h.9c.73-.96,1.28-2,1.65-3.12.37-1.12.55-2.22.55-3.32,0-.62-.05-1.2-.15-1.76-.1-.56-.25-1.11-.44-1.64s-.42-1.06-.69-1.58c-.27-.52-.57-1.04-.91-1.56h-.9c.65,1.07,1.12,2.14,1.41,3.2Z"/>
</svg>