<svg version="1.1" xmlns="http://www.w3.org/2000/svg" xmlns:xlink="http://www.w3.org/1999/xlink" x="0px" y="0px" viewBox="0 0 100 100" style="enable-background:new 0 0 100 100;" fill="currentColor">
  <polygon points="67.4 55.5 67.4 48.5 51.9 48.5 51.9 33.2 44.9 33.2 44.9 48.5 29.9 48.5 29.9 55.5 44.9 55.5 44.9 70.7 51.9 70.7 51.9 55.5 67.4 55.5"/>
  <path d="M48.2-3v13.5h-28.7v18.5H5v2h14.5v39.3H5v2h14.5v18.2h28.7v13.5h2v-13.5h29.3v-37.9h15.5v-2h-15.5V10.5h-29.3V-3h-2ZM76.5,13.5v74H22.5V13.5h54Z"/>
</svg>