<svg version="1.1" xmlns="http://www.w3.org/2000/svg" xmlns:xlink="http://www.w3.org/1999/xlink" x="0px" y="0px" viewBox="0 0 100 100" style="enable-background:new 0 0 100 100;" fill="currentColor">
  <path d="M88.4,26.1v-2h-15.2v-12.2h-21.4v-7.3h-2v7.3h-21.4v12.2h-15.2v2h15.2v14.2h-15.2v2h15.2v14.2h-15.2v2h15.2v14.2h-15.2v2h15.2v12.1h44.8v-12.1h15.2v-2h-15.2v-14.2h15.2v-2h-15.2v-14.2h15.2v-2h-15.2v-14.2h15.2ZM70.2,14.9v9.23h-18.4v-9.23h18.4ZM51.8,56.53v-14.24h18.4v14.24h-18.4ZM70.2,58.53v14.17h-18.4v-14.17h18.4ZM51.8,40.29v-14.17h18.4v14.17h-18.4ZM70.2,74.7v9.1H31.4V14.9h18.4v59.81" />
</svg>