<svg version="1.1" xmlns="http://www.w3.org/2000/svg" xmlns:xlink="http://www.w3.org/1999/xlink" x="0px" y="0px" viewBox="0 0 100 100" style="enable-background:new 0 0 100 100;" fill="currentColor">
	<path d="M95,31v-2h-15V10H20v19H5v2h15v38H5v2h15v19h60v-19h15v-2h-15V31h15ZM77,87H23V13h54v74Z" />
	<rect x="62" y="59.5" width="11.9" height="1.5" />
	<path d="M26.55,23.02h5.16c1.75,0,3.11.63,4.08,1.89.86,1.14,1.29,2.59,1.29,4.37,0,1.37-.25,2.61-.76,3.72-.9,1.96-2.44,2.94-4.62,2.94h-5.14v-12.91ZM31.37,34.44c.58,0,1.05-.06,1.43-.18.66-.23,1.21-.67,1.63-1.32.34-.52.58-1.19.73-2,.09-.49.13-.94.13-1.35,0-1.6-.31-2.84-.93-3.73-.62-.88-1.62-1.33-3-1.33h-3.03v9.91h3.05Z" />
	<path d="M26.73,63.13h9.37v1.58h-7.66v3.92h7.08v1.49h-7.08v4.38h7.8v1.54h-9.5v-12.91Z" />
	<path d="M72.2,34.6c.8.5,1.5.9,2.2,1.2l-.5,1.2c-.9-.3-1.8-.9-2.8-1.6-1,.5-2,.8-3.2.8s-2.2-.3-3.2-.8-1.6-1.4-2.1-2.4-.8-2.2-.8-3.4c0-1.3.3-2.4.8-3.5s1.2-1.8,2.2-2.4c1-.6,2-.8,3.2-.8s2.3.3,3.2.8c1,.6,1.7,1.4,2.2,2.4s.8,2.2.8,3.4c0,1.1-.2,2-.5,2.9s-.9,1.6-1.5,2.2ZM68.4,32.4c1,.3,1.8.7,2.4,1.2,1-.9,1.5-2.3,1.5-4.1,0-1-.2-2-.5-2.7s-.8-1.4-1.5-1.8-1.4-.6-2.3-.6c-1.3,0-2.3.4-3.2,1.3-.8.9-1.3,2.2-1.3,3.9s.4,3,1.2,3.9c.8.9,1.9,1.3,3.2,1.3.6,0,1.2-.1,1.7-.3-.5-.3-1.1-.6-1.7-.7l.5-1.4Z" />
	<path d="M72.1,74.6c.8.5,1.5.9,2.2,1.2l-.5,1.2c-.9-.3-1.8-.9-2.8-1.6-1,.5-2,.8-3.2.8s-2.2-.3-3.2-.8-1.6-1.4-2.1-2.4-.8-2.2-.8-3.4c0-1.3.3-2.4.8-3.5s1.2-1.8,2.2-2.4c1-.6,2-.8,3.2-.8s2.3.3,3.2.8c1,.6,1.7,1.4,2.2,2.4s.8,2.2.8,3.4c0,1.1-.2,2-.5,2.9s-.9,1.6-1.5,2.2ZM68.3,72.4c1,.3,1.8.7,2.4,1.2,1-.9,1.5-2.3,1.5-4.1,0-1-.2-2-.5-2.7s-.9-1.4-1.6-1.8-1.4-.6-2.3-.6c-1.3,0-2.3.4-3.2,1.3-.8.9-1.3,2.2-1.3,3.9s.4,3,1.2,3.9c.8.9,1.9,1.3,3.2,1.3.6,0,1.2-.1,1.7-.3-.5-.3-1.1-.6-1.7-.7l.6-1.4Z" />
</svg>