<svg xmlns="http://www.w3.org/2000/svg" xmlns:xlink="http://www.w3.org/1999/xlink" version="1.1" viewBox="0 0 100 50" style="enable-background:new 0 0 100 50;" fill="currentColor">
  <rect x="5" y="9.2" width="18" height="2"/>
  <rect x="5" y="19.2" width="22.2" height="2"/>
  <rect x="5" y="29.3" width="22.2" height="2"/>
  <rect x="5" y="39.4" width="18" height="2"/>
  <rect x="80" y="24" width="15" height="2"/>
  <path d="M21.7,44.8l-2.4-1.7c5.1-7.1,7-11.9,7-17.9s-2.3-12.2-6.9-17.9l2.3-1.9c5.1,6.3,7.6,12.7,7.6,19.8s-2.1,12.1-7.5,19.7h-.1Z"/>
  <path d="M24.9,44.9l1.6-2.3c2.1-3.1,5.5-9.5,5.3-18-.1-7.6-3-13.3-5.3-16.8l-1.6-2.3h20c15.2,0,23.4,13,26.5,17.9.3.4.5.8.6,1l.6.8-.6.8c-.2.2-.4.6-.6,1-2.8,4.5-11.5,18.1-27.1,18.1M68.7,24.8c-2.8-4.5-10.3-16.5-23.9-16.5h-14.5c2.2,3.9,4.3,9.3,4.4,16.1,0,7.6-2.3,13.6-4.4,17.4h0c0,.1,14,.1,14,.1,13.9,0,21.6-12.2,24.5-16.7"/>
  <path d="M76,30.6c-3.1,0-5.6-2.5-5.6-5.6s2.5-5.6,5.6-5.6,5.6,2.5,5.6,5.6-2.5,5.6-5.6,5.6ZM76,22.4c-1.4,0-2.6,1.2-2.6,2.6s1.2,2.6,2.6,2.6,2.6-1.2,2.6-2.6-1.2-2.6-2.6-2.6Z"/>
</svg>