<svg viewBox="0 0 20 20"><path class="st0" d="M6.4,6.3"/><path d="M2.5,6.2l4.8,4.3,1.2-6.8-2.1.9C4.7,1.7,1.3,0,.2-.5L-.3.4l-.4.9c1.9.9,4,2.3,5.3,4.1l-2,.8Z"/><path d="M6.1,16.2c.3.3.6.5.9.6.4.2.7.2,1.1.2s.8-.1,1.1-.2c.4-.2.7-.4.9-.6.4-.3.6-.6.8-.9h0c0,0,9.8,0,9.8,0v-2h-9.8c-.2-.6-.4-.9-.7-1.1-.2-.3-.5-.5-.9-.7-.7-.3-1.6-.3-2.3,0-.3.2-.6.4-.9.7s-.5.5-.6.9c-.2.3-.2.7-.2,1.1s0,.8.2,1.1c0,.4.4.7.6,1ZM6.6,13.5c0-.2.2-.4.4-.5,0-.2.3-.4.5-.5.2,0,.4,0,.7,0s.5,0,.7,0c.2,0,.3.3.5.4.2.2.3.3.4.5s0,.4,0,.7,0,.5,0,.7c-.1.2-.2.4-.4.5-.2.2-.3.3-.6.4-.4.2-.9.2-1.3,0-.2,0-.4-.2-.5-.4-.2,0-.3-.3-.4-.5,0-.2,0-.4,0-.7s0-.4,0-.6Z"/></svg>